<svg height='30px' width='30px' xmlns="http://www.w3.org/2000/svg" xmlns:xlink="http://www.w3.org/1999/xlink" viewBox="0 0 94 94" version="1.1" x="0px" y="0px">
    <g fill="#5e5e61">
        <rect x="0" y="64" width="10" height="30"></rect>
        <rect transform="translate(15.000000, 89.000000) rotate(-270.000000) translate(-15.000000, -89.000000) " x="10" y="74" width="10" height="30"></rect>
        <rect transform="translate(89.000000, 79.000000) scale(-1, 1) translate(-89.000000, -79.000000) " x="84" y="64" width="10" height="30"></rect>
        <rect transform="translate(79.000000, 89.000000) scale(-1, 1) rotate(-270.000000) translate(-79.000000, -89.000000) " x="74" y="74" width="10" height="30"></rect>
        <rect transform="translate(5.000000, 15.000000) scale(1, -1) translate(-5.000000, -15.000000) " x="0" y="0" width="10" height="30"></rect>
        <rect transform="translate(15.000000, 5.000000) scale(1, -1) rotate(-270.000000) translate(-15.000000, -5.000000) " x="10" y="-10" width="10" height="30"></rect>
        <rect transform="translate(89.000000, 15.000000) scale(-1, -1) translate(-89.000000, -15.000000) " x="84" y="0" width="10" height="30"></rect>
        <rect transform="translate(79.000000, 5.000000) scale(-1, -1) rotate(-270.000000) translate(-79.000000, -5.000000) " x="74" y="-10" width="10" height="30"></rect>
    </g>
</svg>
