<svg version="1.1" xmlns="http://www.w3.org/2000/svg" xmlns:xlink="http://www.w3.org/1999/xlink" x="0px" y="0px" width="160px" height="220px" viewBox="232 58.5 160 220" enable-background="new 232 58.5 160 220" xml:space="preserve">
    <path fill="#5e5e61" d="M305.435,217.272l-51.259-51.979c-9.023-9.05,4.512-22.628,13.539-13.578l30.174,30.264
        c2.521,2.529,4.537,1.695,4.537-1.828V75.301c0-5.303,4.285-9.601,9.572-9.601c5.288,0,9.573,4.298,9.573,9.601v104.851
        c0,3.519,2.031,4.342,4.538,1.828l30.176-30.264c9.024-9.05,22.563,4.528,13.539,13.578l-50.926,51.95
        C315.191,221.026,309.156,221.046,305.435,217.272z M376,252.101c5.302,0,9.6,4.298,9.6,9.6s-4.298,9.6-9.6,9.6H248
        c-5.302,0-9.6-4.298-9.6-9.6s4.298-9.6,9.6-9.6H376z"/>
</svg>
