<svg version="1.1" xmlns="http://www.w3.org/2000/svg" xmlns:xlink="http://www.w3.org/1999/xlink" x="0px" y="0px" width="30px" height="30px" viewBox="0 0 30 30" enable-background="new 0 0 30 30" xml:space="preserve">
    <g fill="#bebec1">
        <path d="M30,15.585C30,16.364,29.55,17,29,17H1c-0.55,0-1-0.636-1-1.415v-1.169C0,13.639,0.45,13,1,13h28 c0.55,0,1,0.637,1,1.416V15.585z"/>
    	<path d="M30,2.584C30,3.363,29.55,4,29,4H1C0.45,4,0,3.363,0,2.584V1.416C0,0.637,0.45,0,1,0h28 c0.55,0,1,0.637,1,1.416V2.584z"/>
    	<path d="M30,28.583C30,29.364,29.55,30,29,30H1c-0.55,0-1-0.636-1-1.417v-1.169C0,26.638,0.45,26,1,26h28 c0.55,0,1,0.638,1,1.417V28.583z"/>
    </g>
</svg>
